<?xml version="1.0" standalone="no"?><!DOCTYPE svg PUBLIC "-//W3C//DTD SVG 1.1//EN" "http://www.w3.org/Graphics/SVG/1.1/DTD/svg11.dtd"><svg t="1693036879169" class="icon" viewBox="0 0 1024 1024" version="1.1" xmlns="http://www.w3.org/2000/svg" p-id="1350" xmlns:xlink="http://www.w3.org/1999/xlink" width="200" height="200"><path d="M904.9 577c-50.1-28.9-50.1-101.2 0-130.2 35.9-20.8 48.3-66.7 27.5-102.7l-64.8-112.3c-20.8-35.9-66.7-48.3-102.7-27.5-50.1 28.9-112.7-7.2-112.7-65.1 0-41.5-33.6-75.2-75.2-75.2H447.4c-41.5 0-75.2 33.6-75.2 75.2 0 57.9-62.6 94-112.7 65.1-35.9-20.8-81.9-8.4-102.7 27.5L92 344.2c-20.8 35.9-8.4 81.9 27.5 102.7 50.1 28.9 50.1 101.2 0 130.2-36 20.7-48.3 66.7-27.5 102.6L156.8 792c20.8 35.9 66.7 48.3 102.7 27.5 50.1-28.9 112.7 7.2 112.7 65.1 0 41.5 33.6 75.2 75.2 75.2h129.7c41.5 0 75.2-33.6 75.2-75.2 0-57.9 62.6-94 112.7-65.1 35.9 20.8 81.9 8.4 102.7-27.5l64.8-112.3c20.7-35.9 8.4-81.9-27.6-102.7zM512.2 687c-96.6 0-175-78.4-175-175s78.4-175 175-175 175 78.4 175 175-78.3 175-175 175z" p-id="1351"></path></svg>